<?xml version="1.0" standalone="no"?>
<!DOCTYPE svg PUBLIC "-//W3C//DTD SVG 20010904//EN"
 "http://www.w3.org/TR/2001/REC-SVG-20010904/DTD/svg10.dtd">
<svg version="1.0" xmlns="http://www.w3.org/2000/svg"
 width="4244.000000pt" height="1249.000000pt" viewBox="0 0 4244.000000 1249.000000"
 preserveAspectRatio="xMidYMid meet">
<metadata>
Created by potrace 1.15, written by Peter Selinger 2001-2017
</metadata>
<g transform="translate(0.000000,1249.000000) scale(0.100000,-0.100000)"
fill="#000000" stroke="none">
<path d="M4020 12480 c-905 -62 -1685 -359 -2351 -894 -855 -686 -1422 -1740
-1603 -2976 -63 -431 -80 -952 -46 -1410 133 -1764 999 -3170 2379 -3859 484
-242 979 -376 1554 -422 195 -15 736 -6 907 15 963 122 1766 505 2416 1151
508 505 877 1127 1111 1870 249 795 315 1797 177 2705 -136 895 -483 1701
-1011 2349 -114 139 -420 445 -558 557 -638 517 -1362 812 -2208 899 -175 19
-599 27 -767 15z m595 -571 c526 -53 1037 -299 1420 -684 464 -466 779 -1171
880 -1970 36 -286 38 -344 42 -1410 6 -1299 -2 -1492 -74 -1910 -120 -702
-411 -1314 -828 -1744 -140 -144 -234 -222 -400 -333 -279 -185 -605 -309
-960 -365 -158 -25 -592 -25 -759 0 -677 102 -1239 460 -1635 1042 -287 421
-480 936 -566 1512 -47 317 -48 351 -53 1528 -2 766 0 1180 8 1310 38 648 176
1185 424 1660 518 991 1404 1474 2501 1364z"/>
<path d="M33430 11880 c-346 -73 -618 -350 -680 -691 -17 -89 -14 -270 4 -357
74 -346 351 -616 706 -688 101 -20 313 -15 405 10 33 9 107 39 165 68 94 46
116 62 211 157 134 134 201 249 244 416 23 85 30 265 16 363 -54 365 -332 659
-689 728 -101 19 -277 17 -382 -6z"/>
<path d="M17685 10400 c-22 -4 -43 -6 -47 -4 -4 2 -9 0 -13 -5 -3 -5 -29 -21
-58 -34 -46 -21 -100 -67 -252 -212 -23 -22 -106 -101 -185 -175 -247 -234
-504 -495 -629 -640 -38 -43 -74 -133 -91 -223 -14 -79 -2 -164 32 -225 41
-73 184 -229 521 -569 l261 -262 758 758 c417 417 758 763 758 767 0 9 -478
487 -652 652 -170 161 -260 200 -403 172z"/>
<path d="M13570 9243 c-576 -59 -1038 -305 -1403 -746 l-82 -99 -3 298 -2 299
-72 72 -72 73 -946 0 -946 0 -72 -73 -72 -72 0 -181 0 -181 383 -54 382 -54 3
-3952 2 -3952 -32 -6 c-31 -5 -728 -105 -735 -105 -2 0 -3 -80 -3 -178 l0
-177 78 -78 77 -77 1455 0 1455 0 78 78 77 77 0 180 0 180 -520 55 -520 55 0
1624 c0 894 4 1621 8 1616 5 -6 38 -46 74 -90 135 -162 317 -326 488 -437 210
-137 450 -232 717 -285 132 -26 152 -27 443 -27 345 0 463 13 732 80 359 90
711 265 994 494 100 81 282 263 360 360 302 375 506 819 609 1325 146 728 95
1553 -135 2171 -384 1029 -1190 1668 -2244 1779 -130 13 -457 18 -556 8z m298
-584 c299 -32 515 -126 701 -303 250 -240 400 -603 466 -1128 28 -220 38 -640
32 -1308 -4 -349 -11 -684 -17 -745 -61 -659 -246 -1097 -562 -1336 -222 -167
-512 -248 -848 -236 -280 10 -494 79 -726 236 -251 169 -445 399 -594 702
-136 278 -206 540 -230 859 -13 173 -13 1337 0 1495 44 539 257 1017 601 1351
338 328 723 463 1177 413z"/>
<path d="M28447 9235 c-369 -45 -703 -171 -1039 -391 -187 -123 -313 -228
-500 -413 l-168 -166 0 370 0 370 -72 72 -72 73 -946 0 -945 0 -78 -78 -77
-78 2 -174 3 -175 388 -55 387 -55 0 -2395 0 -2395 -387 -55 -388 -55 -3 -175
-2 -174 77 -78 78 -78 1275 0 1276 0 72 73 72 72 0 178 c0 175 0 177 -22 182
-25 5 -623 105 -632 105 -3 0 -6 817 -6 1816 l0 1815 41 60 c65 96 228 296
325 399 392 415 702 619 1059 696 121 26 364 23 470 -5 299 -80 446 -268 532
-678 15 -71 17 -270 20 -2090 2 -1107 1 -2013 -2 -2013 -10 0 -608 -100 -632
-105 -23 -5 -23 -7 -23 -182 l0 -178 72 -72 72 -73 1276 0 1275 0 78 78 77 78
-2 174 -3 175 -387 55 -388 55 0 1973 c0 1319 -4 2005 -11 2070 -44 405 -182
716 -429 962 -275 276 -662 443 -1134 489 -144 14 -444 12 -579 -4z"/>
<path d="M39110 9239 c-417 -45 -747 -140 -1093 -316 -505 -258 -910 -645
-1198 -1149 -349 -612 -482 -1393 -368 -2179 97 -671 387 -1262 844 -1721 165
-165 263 -247 430 -358 372 -247 760 -394 1235 -469 117 -18 178 -21 460 -22
348 0 426 7 685 61 1074 227 1905 1018 2210 2104 147 528 163 1186 40 1735
-197 878 -743 1599 -1512 1993 -309 158 -624 257 -984 307 -135 19 -619 28
-749 14z m535 -550 c211 -26 417 -99 578 -206 291 -193 530 -608 627 -1090 61
-305 65 -376 65 -1253 0 -877 -4 -948 -65 -1252 -98 -487 -330 -895 -623
-1096 -222 -153 -472 -222 -802 -222 -274 0 -456 39 -660 140 -255 127 -424
308 -580 623 -142 285 -220 614 -245 1032 -5 94 -10 442 -10 775 0 333 5 682
10 775 31 512 145 906 354 1220 224 336 512 507 941 558 70 9 327 6 410 -4z"/>
<path d="M32392 9067 l-72 -72 0 -181 0 -181 383 -54 382 -54 3 -2391 2 -2390
-385 -54 -385 -54 0 -180 0 -181 72 -72 72 -73 1331 0 1331 0 72 73 72 72 0
181 0 180 -385 54 -385 54 0 2625 0 2626 -72 72 -72 73 -946 0 -946 0 -72 -73z"/>
<path d="M18457 8342 c-416 -416 -757 -762 -757 -767 0 -6 429 -438 953 -960
523 -522 1526 -1522 2227 -2221 l1275 -1271 768 0 767 0 0 767 0 767 -947 939
c-521 517 -1512 1502 -2202 2190 -1236 1231 -1320 1314 -1324 1314 -1 0 -343
-341 -760 -758z"/>
</g>
</svg>
